<?xml version="1.0" encoding="UTF-8" standalone="no"?>
<svg
   xmlns:dc="http://purl.org/dc/elements/1.1/"
   xmlns:cc="http://creativecommons.org/ns#"
   xmlns:rdf="http://www.w3.org/1999/02/22-rdf-syntax-ns#"
   xmlns:svg="http://www.w3.org/2000/svg"
   xmlns="http://www.w3.org/2000/svg"
   xmlns:sodipodi="http://sodipodi.sourceforge.net/DTD/sodipodi-0.dtd"
   xmlns:inkscape="http://www.inkscape.org/namespaces/inkscape"
   version="1.0"
   width="16.000000pt"
   height="16.000000pt"
   viewBox="0 0 16.000000 16.000000"
   preserveAspectRatio="xMidYMid meet"
   id="svg2"
   inkscape:version="0.91 r13725"
   sodipodi:docname="safari-pinned-tab.svg">
  <defs
     id="defs12" />
  <sodipodi:namedview
     pagecolor="#ffffff"
     bordercolor="#666666"
     borderopacity="1"
     objecttolerance="10"
     gridtolerance="10"
     guidetolerance="10"
     inkscape:pageopacity="0"
     inkscape:pageshadow="2"
     inkscape:window-width="1536"
     inkscape:window-height="801"
     id="namedview10"
     showgrid="false"
     inkscape:zoom="33.37544"
     inkscape:cx="15.698049"
     inkscape:cy="10.012233"
     inkscape:window-x="-8"
     inkscape:window-y="-8"
     inkscape:window-maximized="1"
     inkscape:current-layer="svg2" />
  <metadata
     id="metadata4">
Created by potrace 1.11, written by Peter Selinger 2001-2013
<rdf:RDF>
  <cc:Work
     rdf:about="">
    <dc:format>image/svg+xml</dc:format>
    <dc:type
       rdf:resource="http://purl.org/dc/dcmitype/StillImage" />
  </cc:Work>
</rdf:RDF>
</metadata>
  <g
     transform="translate(0.000000,16.000000) scale(0.006400,-0.006400)"
     id="g6"
     stroke="none"
     fill="#000000">
    <path
       d="M0 1250 l0 -1250 1250 0 1250 0 0 1250 0 1250 -1250 0 -1250 0 0 -1250z m789 794 c124 -62 276 -234 327 -369 56 -148 -10 -305 -129 -305 -53 0 -94 27 -119 78 -21 44 -20 64 9 138 4 12 0 12 -22 4 -71 -27 -155 3 -181 65 -18 44 -18 77 1 121 14 34 14 36 -3 29 -9 -4 -37 -10 -62 -12 -79 -8 -140 49 -140 133 0 86 84 154 190 154 46 0 72 -7 129 -36z m736 -127 c11 -7 72 -66 135 -132 63 -66 185 -192 272 -281 137 -139 158 -165 158 -192 0 -29 -5 -34 -62 -60 -35 -16 -109 -56 -165 -90 l-103 -61 -300 290 c-165 160 -305 299 -310 310 -9 16 -6 24 17 44 65 57 188 139 241 161 64 26 88 29 117 11z m-408 -868 c169 -177 308 -325 308 -330 0 -11 -122 -108 -229 -181 -70 -48 -99 -62 -135 -66 -53 -5 -16 -39 -400 366 -153 162 -211 230 -211 247 0 26 5 30 120 104 41 26 111 78 155 114 44 37 81 67 82 67 1 0 140 -145 310 -321z m593 17 c33 -13 86 -39 117 -57 79 -46 224 -192 251 -251 31 -68 30 -146 -4 -207 -31 -58 -68 -81 -129 -81 -42 0 -52 5 -88 40 l-40 40 6 65 5 65 -33 -20 c-20 -13 -50 -20 -80 -20 -42 0 -52 5 -88 40 -40 40 -40 40 -35 104 l6 64 -32 -19 c-18 -11 -49 -19 -74 -19 -82 0 -132 51 -132 136 0 43 4 51 44 89 24 24 61 47 82 53 56 16 155 6 224 -22z"
       id="path8" />
  </g>
  <path
     style="opacity:1;fill:#01b2ff;fill-opacity:1;fill-rule:nonzero;stroke:#ffffff;stroke-width:0.04194701;stroke-miterlimit:4;stroke-dasharray:none;stroke-dashoffset:0;stroke-opacity:1"
     d="m 0.00986626,9.9997514 0,-9.97739652 9.99237774,0 9.992377,0 0,9.97739652 0,9.9773966 -9.992377,0 -9.99237774,0 0,-9.9773966 z M 8.582697,16.218745 c 0.2486206,-0.0527 0.4544711,-0.156269 0.9101903,-0.457946 0.6722257,-0.445 1.8318047,-1.344184 1.9015807,-1.474561 0.02305,-0.04306 -0.05373,-0.141482 -0.424445,-0.544083 C 9.9000307,12.580126 6.4986724,9.0409626 6.4518808,9.0409626 c -0.014242,0 -0.2122342,0.1526326 -0.4399834,0.3391835 C 5.402176,9.8795729 5.0010247,10.17639 4.4143026,10.562226 c -0.6538761,0.429997 -0.765669,0.519765 -0.8083507,0.649091 -0.045539,0.137986 0.011813,0.245489 0.3366901,0.631107 0.5240314,0.622007 3.5823279,3.859262 3.9249514,4.154623 0.3220392,0.277617 0.3745248,0.293889 0.7151036,0.221698 z m 7.263787,0.0038 c 0.353599,-0.07414 0.599086,-0.289788 0.79343,-0.696999 0.274506,-0.575177 0.215186,-1.313419 -0.146975,-1.829118 -0.46354,-0.660058 -1.42067,-1.538359 -2.05065,-1.881762 -0.682343,-0.371945 -1.252697,-0.549727 -1.853215,-0.577654 -0.651294,-0.03029 -0.937076,0.07238 -1.380399,0.495931 -0.310943,0.297074 -0.334217,0.34431 -0.334418,0.678746 -3e-4,0.496336 0.168112,0.817687 0.522355,0.996724 0.367194,0.185584 0.823182,0.159174 1.208592,-0.07 0.167286,-0.09947 0.175118,-0.101274 0.157747,-0.0363 -0.01005,0.0376 -0.02715,0.250693 -0.03799,0.473538 -0.02381,0.489273 -0.02178,0.494563 0.311687,0.813156 0.289581,0.276664 0.364763,0.305402 0.757682,0.28962 0.276632,-0.01111 0.310731,-0.01978 0.541618,-0.137746 0.13552,-0.06924 0.251745,-0.120544 0.258278,-0.114011 0.0065,0.0065 -0.0075,0.225432 -0.03115,0.486443 l -0.04303,0.474565 0.242938,0.248754 c 0.133615,0.136814 0.288216,0.277016 0.343556,0.311559 0.184608,0.115231 0.428655,0.13982 0.739942,0.07456 z m -1.055118,-5.43403 c 0.381673,-0.225339 0.943387,-0.53589 1.248251,-0.690114 0.304865,-0.1542232 0.584637,-0.3144227 0.621715,-0.3559985 0.100918,-0.113159 0.09276,-0.3201753 -0.0196,-0.4973463 C 16.517072,9.0485013 16.385904,8.9072064 14.950262,7.4230064 12.418275,4.8053798 12.218819,4.6134 11.979746,4.5638456 11.840929,4.5350717 11.44524,4.6497827 11.1092,4.8162186 10.578658,5.0789887 9.5147642,5.8190859 9.2562681,6.1052101 9.1258225,6.249598 9.1226216,6.3005085 9.2344509,6.4522315 9.3852132,6.6567765 14.02098,11.198237 14.07901,11.198237 c 0.01012,0 0.330682,-0.184367 0.712356,-0.409706 z M 8.3543255,8.944364 C 8.6677839,8.7819739 8.9334918,8.4093224 9.0430047,7.9785017 9.1098499,7.7155343 9.1022653,7.1979966 9.02696,6.8836876 8.7651378,5.7908931 7.427521,4.2003657 6.2869371,3.6255928 5.8918822,3.4265131 5.7244645,3.3758277 5.4030536,3.3579984 4.7132961,3.3197361 4.1166061,3.6165834 3.8682157,4.1215647 c -0.091019,0.1850432 -0.098099,0.2210958 -0.098099,0.4995197 0,0.2619794 0.010074,0.3215697 0.079339,0.4693073 0.2047631,0.4367493 0.6083776,0.636833 1.1382792,0.5642793 0.136338,-0.018667 0.2990424,-0.051565 0.3615656,-0.073106 0.062523,-0.021541 0.1136782,-0.02984 0.1136782,-0.018443 0,0.011398 -0.040449,0.1315554 -0.089887,0.2670176 -0.2215,0.6069247 -0.010845,1.1908499 0.5156043,1.4292255 0.2583262,0.1169695 0.6391221,0.1365678 0.921293,0.047416 0.1064073,-0.033619 0.1965769,-0.058018 0.2003767,-0.054217 0.0038,0.0038 -0.034609,0.1212307 -0.085353,0.2609577 -0.1312788,0.3614862 -0.1323665,0.6025764 -0.00394,0.873655 0.1499947,0.3166062 0.3806994,0.5329087 0.6692191,0.6274425 0.041198,0.013499 0.1962521,0.020676 0.3445647,0.015949 0.2208696,-0.00704 0.2967649,-0.022636 0.4194701,-0.086204 z"
     id="path4144"
     inkscape:connector-curvature="0"
     transform="scale(0.8,0.8)" />
</svg>
